<svg width="70" height="60" viewBox="0 0 70 60" fill="none" xmlns="http://www.w3.org/2000/svg">
<path d="M43.3452 25.0773C42.6907 24.0161 42.7083 22.7751 43.493 21.8832C43.9787 21.3332 44.6508 20.9489 45.2314 20.48C45.3581 20.3778 45.5516 20.2367 45.5552 20.1098C45.5692 19.5316 45.5305 18.9534 45.5059 18.3576C44.3306 18.6396 42.8455 19.8842 42.1136 21.1357C40.8538 23.2969 41.16 26.135 42.8491 27.8202C43.6725 28.6417 44.6684 29.0753 45.8719 29.1C45.7909 26.9071 45.7135 24.7706 45.6361 22.5742C44.2426 22.8351 43.7042 23.8575 43.3417 25.0773H43.3452Z" fill="white"/>
<path d="M47.8707 22.5178C47.9481 24.6366 48.0255 26.7555 48.1029 28.8779C49.792 28.691 50.9885 27.0481 50.8372 25.1478C50.7246 23.7129 49.3099 22.4473 47.8707 22.5213V22.5178Z" fill="white"/>
<path d="M49.2361 10.4392C49.2361 8.88793 48.9158 7.41072 47.9094 6.12036C46.1605 8.05589 45.4602 11.585 46.9945 14.6522C48.571 13.6474 49.2325 12.1984 49.2325 10.4427L49.2361 10.4392Z" fill="white"/>
<g filter="url(#filter0_d_11_138)">
<path d="M55.4224 13.2984C55.2007 13.108 55.338 12.7449 55.63 12.7449C55.7356 12.7449 55.8341 12.6955 55.894 12.6074C56.7244 11.3805 57.013 9.67766 56.7561 7.50239C56.4887 5.08386 55.2605 3.173 53.0752 1.77688C51.1539 0.59582 48.8067 0.00352556 46.0373 0.00352556C41.621 0.00352556 38.3553 1.42785 36.2404 4.28003C35.9836 4.62554 35.4733 4.61143 35.234 4.25535C33.3302 1.41728 30.0787 0 25.4794 0C19.5042 0 15.7987 2.03072 14.3594 6.09217C14.092 6.7867 13.9582 7.48124 13.9582 8.17577C13.9582 9.12415 14.099 9.86804 14.377 10.4145C14.5846 10.8199 14.3172 11.3029 13.8632 11.3029H11.0375C9.91142 11.3029 9 12.2161 9 13.3442V14.0705C9 15.1987 9.91142 16.1118 11.0375 16.1118H13.5641C14.106 16.1118 14.37 16.764 13.9899 17.1519C11.8222 19.3835 10.6926 22.5213 10.6011 26.5616C10.5484 30.69 11.868 34.2931 14.56 37.3745C17.252 40.4558 20.5739 41.9965 24.5187 41.9965C29.5825 41.9965 33.2141 40.5616 35.4135 37.6918C35.6563 37.378 36.1208 37.3674 36.3706 37.6777C38.665 40.5087 42.0503 41.9471 46.5194 41.9965C50.626 42.0494 54.0922 40.4205 56.918 37.1065C59.6381 33.9547 60.9965 30.1894 60.9965 25.8071C61.0457 20.755 59.1877 16.5842 55.4224 13.2984ZM23.6179 5.23898C24.2935 5.0063 25.0219 4.88995 25.7996 4.88995C27.2389 4.88995 28.5444 5.29187 29.7198 6.09217C31.3385 7.19214 32.2992 8.69403 32.6018 10.6049C32.6581 10.9715 32.3696 11.3029 32.0001 11.3029H24.6806C24.2266 11.3029 23.931 10.8446 24.0964 10.4216C24.3463 9.7799 24.4343 9.11005 24.3604 8.41904C24.2407 7.54117 23.9099 6.79375 23.375 6.18383C23.1006 5.87006 23.2272 5.37648 23.6214 5.24251L23.6179 5.23898ZM33.2387 26.9282C33.2387 28.5852 32.3309 29.8685 30.5186 30.7746C29.0793 31.4692 27.3198 31.8182 25.2401 31.8182C22.7874 31.8182 20.7604 31.0426 19.1593 29.4948C17.5582 27.9471 16.784 26.0222 16.8403 23.7235C16.8931 21.5341 17.7482 19.6903 19.3986 18.1919C19.3986 18.1919 20.4754 17.2047 22.0378 16.5314C25.8348 14.8955 32.6124 15.7522 33.0769 15.8121L33.2387 22.1969V26.9247V26.9282ZM49.9011 30.69C49.7709 30.7605 49.6442 30.8628 49.507 30.8839C48.4372 31.0496 48.2718 31.7371 48.3352 32.6855C48.388 33.5034 48.3105 34.339 48.2226 35.1604C48.0185 37.0254 47.0472 37.8434 45.1681 37.794C42.93 37.7341 41.3993 35.6399 42.089 33.588C42.3775 32.7313 43.0813 32.3118 43.8766 32.5268C44.8092 32.7771 45.1962 33.6197 44.7458 34.5082C44.5382 34.9207 44.4678 35.2697 44.8901 35.5729C45.3053 35.8691 45.8508 35.7492 45.9493 35.2627C46.0901 34.5681 46.1429 33.8489 46.1393 33.1403C46.1288 31.6137 46.1041 31.6137 44.6578 31.2893C41.7371 30.6371 39.9389 28.825 39.1506 25.9622C39.1225 25.86 39.0697 25.7613 39.0275 25.6626C38.9993 24.9257 38.9747 24.1924 38.9465 23.4556C38.9993 23.244 39.0627 23.036 39.1049 22.821C39.4744 20.9101 40.3999 19.313 41.8567 18.0368C42.5324 17.4445 43.2608 16.9086 43.9928 16.3868C44.9042 15.7381 44.9534 15.6746 44.7071 14.5641C44.6684 14.3843 44.598 14.208 44.5804 14.0282C44.4537 12.8824 44.1757 11.726 44.2496 10.5943C44.415 8.02065 45.1224 5.63385 47.3991 4.04734C47.7299 4.03677 48.0607 4.02266 48.3915 4.01209C50.3058 5.27071 52.0864 9.08184 50.9779 12.551C50.5908 13.7603 50.0736 14.8814 49.127 15.7593C47.3921 17.3704 47.5047 17.4586 47.7088 20.1486C47.9692 20.2015 48.2366 20.2508 48.5041 20.3108C50.9815 20.8678 52.5404 22.5213 52.8817 24.9574C53.2125 27.3055 52.0512 29.5407 49.9011 30.6935V30.69Z" fill="white"/>
</g>
<defs>
<filter id="filter0_d_11_138" x="5" y="0" width="59.9974" height="51.9977" filterUnits="userSpaceOnUse" color-interpolation-filters="sRGB">
<feFlood flood-opacity="0" result="BackgroundImageFix"/>
<feColorMatrix in="SourceAlpha" type="matrix" values="0 0 0 0 0 0 0 0 0 0 0 0 0 0 0 0 0 0 127 0" result="hardAlpha"/>
<feOffset dy="6"/>
<feGaussianBlur stdDeviation="2"/>
<feComposite in2="hardAlpha" operator="out"/>
<feColorMatrix type="matrix" values="0 0 0 0 0 0 0 0 0 0 0 0 0 0 0 0 0 0 0.25 0"/>
<feBlend mode="normal" in2="BackgroundImageFix" result="effect1_dropShadow_11_138"/>
<feBlend mode="normal" in="SourceGraphic" in2="effect1_dropShadow_11_138" result="shape"/>
</filter>
</defs>
</svg>
