<svg width="114" height="95" viewBox="0 0 114 95" fill="none" xmlns="http://www.w3.org/2000/svg">
<path d="M71.2363 44.1175C70.0883 42.2506 70.1192 40.0674 71.4955 38.4982C72.3472 37.5306 73.526 36.8545 74.5443 36.0296C74.7665 35.8498 75.106 35.6017 75.1121 35.3784C75.1368 34.3612 75.0689 33.344 75.0257 32.2958C72.9644 32.792 70.3599 34.9814 69.0762 37.1833C66.8667 40.9853 67.4036 45.9782 70.3661 48.943C71.8102 50.3881 73.5569 51.151 75.6676 51.1944C75.5256 47.3366 75.3899 43.5779 75.2541 39.7138C72.8101 40.1728 71.8658 41.9715 71.2301 44.1175H71.2363Z" fill="white"/>
<path d="M79.1732 39.6146C79.309 43.3422 79.4447 47.0698 79.5805 50.8037C82.543 50.4749 84.6413 47.5846 84.376 44.2416C84.1785 41.7172 81.6974 39.4905 79.1732 39.6208V39.6146Z" fill="white"/>
<path d="M81.5679 18.3652C81.5679 15.6362 81.0062 13.0374 79.2411 10.7673C76.1738 14.1724 74.9456 20.381 77.6365 25.7771C80.4014 24.0094 81.5617 21.4602 81.5617 18.3714L81.5679 18.3652Z" fill="white"/>
<g filter="url(#filter0_d_19_24)">
<path d="M92.4178 23.3954C92.0289 23.0604 92.2696 22.4216 92.7819 22.4216C92.967 22.4216 93.1399 22.3347 93.2448 22.1797C94.7013 20.0213 95.2074 17.0255 94.7569 13.1987C94.2878 8.94382 92.1339 5.58214 88.3012 3.126C84.9314 1.0482 80.8149 0.00620237 75.9577 0.00620237C68.2121 0.00620237 62.4848 2.51196 58.7755 7.52968C58.325 8.13752 57.4301 8.11271 57.0104 7.48627C53.6715 2.49335 47.9688 0 39.9023 0C29.4227 0 22.9238 3.57257 20.3996 10.7177C19.9305 11.9396 19.696 13.1614 19.696 14.3833C19.696 16.0517 19.9429 17.3604 20.4304 18.3218C20.7946 19.0351 20.3255 19.8848 19.5294 19.8848H14.5734C12.5985 19.8848 11 21.4912 11 23.476V24.7537C11 26.7384 12.5985 28.3449 14.5734 28.3449H19.0048C19.9552 28.3449 20.4181 29.4923 19.7515 30.1746C15.9497 34.1007 13.9686 39.6208 13.8081 46.7287C13.7156 53.9917 16.03 60.3305 20.7514 65.7514C25.4728 71.1722 31.2989 73.8827 38.2174 73.8827C47.0986 73.8827 53.4678 71.3583 57.3252 66.3096C57.751 65.7576 58.5657 65.739 59.0039 66.2848C63.0279 71.2653 68.9651 73.7958 76.8032 73.8827C84.0057 73.9757 90.0848 71.1102 95.0408 65.28C99.8115 59.7351 102.194 53.1109 102.194 45.4014C102.28 36.5134 99.0215 29.176 92.4178 23.3954ZM36.6375 9.21673C37.8224 8.80737 39.1 8.60269 40.4639 8.60269C42.9882 8.60269 45.2779 9.30976 47.3393 10.7177C50.1783 12.6528 51.8632 15.2951 52.3939 18.6567C52.4927 19.3018 51.9866 19.8848 51.3386 19.8848H38.5013C37.7052 19.8848 37.1867 19.0785 37.4768 18.3342C37.915 17.2054 38.0693 16.0269 37.9397 14.8113C37.7299 13.2669 37.1497 11.952 36.2116 10.879C35.7302 10.327 35.9524 9.45862 36.6436 9.22293L36.6375 9.21673ZM53.511 47.3737C53.511 50.2888 51.9187 52.5465 48.7403 54.1405C46.216 55.3624 43.1301 55.9764 39.4826 55.9764C35.1809 55.9764 31.626 54.6119 28.8179 51.8891C26.0097 49.1662 24.6519 45.7797 24.7507 41.7358C24.8432 37.8841 26.343 34.6403 29.2375 32.0042C29.2375 32.0042 31.1261 30.2676 33.8663 29.0829C40.5257 26.205 52.4125 27.7122 53.2271 27.8176L53.511 39.0501V47.3675V47.3737ZM82.7343 53.9917C82.5059 54.1157 82.2837 54.2956 82.043 54.3328C80.1668 54.6243 79.8768 55.8338 79.9879 57.5022C80.0804 58.9412 79.9447 60.4111 79.7904 61.8563C79.4324 65.1373 77.729 66.5763 74.4333 66.4894C70.508 66.384 67.8233 62.6998 69.033 59.09C69.5391 57.5828 70.7734 56.8448 72.1682 57.2231C73.8038 57.6635 74.4827 59.1458 73.6927 60.7088C73.3285 61.4345 73.2051 62.0486 73.9457 62.582C74.674 63.103 75.6306 62.8921 75.8034 62.0361C76.0503 60.8143 76.1429 59.549 76.1367 58.3023C76.1182 55.6167 76.075 55.6167 73.5384 55.0461C68.4158 53.8986 65.2621 50.7106 63.8796 45.6743C63.8302 45.4944 63.7376 45.3207 63.6636 45.1471C63.6142 43.8508 63.571 42.5607 63.5216 41.2644C63.6142 40.8923 63.7253 40.5263 63.7993 40.148C64.4474 36.7863 66.0706 33.9766 68.6257 31.7313C69.8106 30.6893 71.0882 29.7466 72.3719 28.8286C73.9704 27.6874 74.0568 27.5758 73.6248 25.622C73.5569 25.3057 73.4335 24.9956 73.4026 24.6792C73.1804 22.6635 72.6928 20.6291 72.8224 18.6381C73.1125 14.1104 74.353 9.91139 78.3462 7.12033C78.9263 7.10172 79.5065 7.07691 80.0866 7.0583C83.444 9.27255 86.5669 15.9773 84.6228 22.0805C83.9439 24.2079 83.0367 26.1802 81.3765 27.7246C78.3338 30.5591 78.5313 30.7142 78.8893 35.4466C79.346 35.5396 79.815 35.6264 80.2841 35.7319C84.629 36.7119 87.3631 39.6208 87.9618 43.9066C88.5419 48.0374 86.5052 51.9697 82.7343 53.9979V53.9917Z" fill="white"/>
</g>
<defs>
<filter id="filter0_d_19_24" x="7" y="0" width="99.1955" height="83.8849" filterUnits="userSpaceOnUse" color-interpolation-filters="sRGB">
<feFlood flood-opacity="0" result="BackgroundImageFix"/>
<feColorMatrix in="SourceAlpha" type="matrix" values="0 0 0 0 0 0 0 0 0 0 0 0 0 0 0 0 0 0 127 0" result="hardAlpha"/>
<feOffset dy="6"/>
<feGaussianBlur stdDeviation="2"/>
<feComposite in2="hardAlpha" operator="out"/>
<feColorMatrix type="matrix" values="0 0 0 0 0 0 0 0 0 0 0 0 0 0 0 0 0 0 0.25 0"/>
<feBlend mode="normal" in2="BackgroundImageFix" result="effect1_dropShadow_19_24"/>
<feBlend mode="normal" in="SourceGraphic" in2="effect1_dropShadow_19_24" result="shape"/>
</filter>
</defs>
</svg>
