<svg width="83" height="84" viewBox="0 0 83 84" fill="none" xmlns="http://www.w3.org/2000/svg">
<rect width="83" height="84" rx="14" fill="white"/>
<path d="M42.0698 74.6364C60.3342 74.6364 75.1395 60.1675 75.1395 42.3182C75.1395 24.4689 60.3342 10 42.0698 10C23.8053 10 9 24.4689 9 42.3182C9 60.1675 23.8053 74.6364 42.0698 74.6364Z" stroke="black" stroke-width="4"/>
<path d="M53.0526 60C51.5053 60 50.1974 59.4714 49.1289 58.4141C48.0605 57.3568 47.5263 56.0625 47.5263 54.5312C47.5263 53 48.0605 51.7057 49.1289 50.6484C50.1974 49.5911 51.5053 49.0625 53.0526 49.0625C53.3474 49.0625 53.6789 49.0902 54.0474 49.1456C54.4158 49.201 54.8211 49.3192 55.2632 49.5V38.125H63V42.5H58.5789V54.5312C58.5789 56.0625 58.0447 57.3568 56.9763 58.4141C55.9079 59.4714 54.6 60 53.0526 60ZM38.6842 42.5C36.2526 42.5 34.1711 41.6432 32.4395 39.9297C30.7079 38.2161 29.8421 36.1563 29.8421 33.75C29.8421 31.3437 30.7079 29.2839 32.4395 27.5703C34.1711 25.8568 36.2526 25 38.6842 25C41.1158 25 43.1974 25.8568 44.9289 27.5703C46.6605 29.2839 47.5263 31.3437 47.5263 33.75C47.5263 36.1563 46.6605 38.2161 44.9289 39.9297C43.1974 41.6432 41.1158 42.5 38.6842 42.5ZM21 60V53.875C21 52.599 21.3227 51.4505 21.9682 50.4297C22.6137 49.4089 23.4699 48.625 24.5368 48.0781C26.8211 46.9479 29.1421 46.1006 31.5 45.5362C33.8579 44.9719 36.2526 44.689 38.6842 44.6875C40.2316 44.6875 41.7701 44.8064 43.2998 45.0441C44.8295 45.2818 46.3673 45.6369 47.9132 46.1094C45.4816 47.5677 43.9711 49.6553 43.3816 52.3722C42.7921 55.0891 43.2711 57.6317 44.8184 60H21Z" fill="black"/>
</svg>
