<svg width="13" height="13" viewBox="0 0 13 13" fill="none" xmlns="http://www.w3.org/2000/svg">
<g clip-path="url(#clip0_11_163)">
<path d="M-2.84124e-07 6.5C-1.2702e-07 2.90588 2.90588 -4.41228e-07 6.5 -2.84124e-07C10.0941 -1.2702e-07 13 2.90588 13 6.5C13 10.0941 10.0941 13 6.5 13C2.90588 13 -4.41228e-07 10.0941 -2.84124e-07 6.5ZM12.2353 6.5C12.2353 3.32647 9.67353 0.764706 6.5 0.764706C3.32647 0.764705 0.764706 3.32647 0.764705 6.5C0.764705 9.67353 3.32647 12.2353 6.5 12.2353C9.67353 12.2353 12.2353 9.67353 12.2353 6.5Z" fill="white"/>
<path d="M3.24362 4.33334L6.41715 7.50687L9.59068 4.33334L10.126 4.86863L6.41715 8.57745L2.70833 4.86863L3.24362 4.33334Z" fill="white"/>
</g>
<defs>
<clipPath id="clip0_11_163">
<rect width="13" height="13" fill="white"/>
</clipPath>
</defs>
</svg>
