<svg width="83" height="84" viewBox="0 0 83 84" fill="none" xmlns="http://www.w3.org/2000/svg">
<rect width="83" height="84" rx="14" fill="white"/>
<path d="M41.0698 74.6364C59.3342 74.6364 74.1395 60.1675 74.1395 42.3182C74.1395 24.4689 59.3342 10 41.0698 10C22.8053 10 8 24.4689 8 42.3182C8 60.1675 22.8053 74.6364 41.0698 74.6364Z" stroke="black" stroke-width="4"/>
<path d="M26.0768 26.9338C31.4367 23.7373 36.1166 25.0283 38.9325 27.0777C40.0845 27.9177 40.6605 28.3416 41.0005 28.3416C41.3405 28.3416 41.9165 27.9177 43.0684 27.0777C45.8804 25.0245 50.5643 23.7334 55.9242 26.9338C62.964 31.1337 64.556 44.9777 48.3243 56.6634C45.2284 58.8878 43.6844 60 41.0005 60C38.3205 60 36.7726 58.8878 33.6806 56.6634C17.4409 44.9777 19.0369 31.1298 26.0768 26.9338Z" fill="#231F20" stroke="#231F20" stroke-width="1.5" stroke-linecap="round" stroke-linejoin="round"/>
</svg>
