<svg width="30" height="30" viewBox="0 0 30 30" fill="none" xmlns="http://www.w3.org/2000/svg">
<path d="M10.3363 10.6212C12.0113 9.59375 13.4738 10.0087 14.3538 10.6675C14.7138 10.9375 14.8938 11.0737 15 11.0737C15.1063 11.0737 15.2863 10.9375 15.6463 10.6675C16.525 10.0075 17.9888 9.5925 19.6638 10.6212C21.8638 11.9712 22.3613 16.4212 17.2888 20.1775C16.3213 20.8925 15.8388 21.25 15 21.25C14.1625 21.25 13.6788 20.8925 12.7125 20.1775C7.63753 16.4212 8.13628 11.97 10.3363 10.6212Z" stroke="white" stroke-width="1.5" stroke-linecap="round" stroke-linejoin="round"/>
<path d="M27.5 15C27.5 8.09625 21.9037 2.5 15 2.5C8.09625 2.5 2.5 8.09625 2.5 15C2.5 21.9037 8.09625 27.5 15 27.5C21.9037 27.5 27.5 21.9037 27.5 15Z" stroke="white" stroke-width="1.5" stroke-linecap="round" stroke-linejoin="round"/>
</svg>
