<svg width="24" height="24" viewBox="0 0 24 24" fill="none" xmlns="http://www.w3.org/2000/svg">
<path d="M7.5 12H16.5M12 22C17.523 22 22 17.523 22 12C22 6.477 17.523 2 12 2C6.477 2 2 6.477 2 12C2 17.523 6.477 22 12 22Z" stroke="black" stroke-width="1.5" stroke-linecap="round" stroke-linejoin="round"/>
<path d="M16.503 9.302H9.46301C8.47701 9.302 7.643 9.349 7.52 9.015C7.424 8.754 7.92 8.1 8.4 7.5M7.505 14.699H14.545C15.531 14.699 16.365 14.651 16.488 14.985C16.584 15.246 16.088 15.9 15.608 16.5" stroke="black" stroke-width="1.5" stroke-linecap="round" stroke-linejoin="round"/>
</svg>
