<svg width="83" height="84" viewBox="0 0 83 84" fill="none" xmlns="http://www.w3.org/2000/svg">
<rect width="83" height="84" rx="14" fill="white"/>
<path d="M41.0698 74.6364C59.3342 74.6364 74.1395 60.1675 74.1395 42.3182C74.1395 24.4689 59.3342 10 41.0698 10C22.8053 10 8 24.4689 8 42.3182C8 60.1675 22.8053 74.6364 41.0698 74.6364Z" stroke="black" stroke-width="4"/>
<path d="M44.3768 26.1591V48.7818" stroke="black" stroke-width="4" stroke-linecap="round" stroke-linejoin="round"/>
<path d="M24.5349 49.8581C24.5349 46.5842 27.7328 43.9341 31.678 43.9341H44.3768V50.9375C44.3768 54.2113 41.1789 56.8614 37.2337 56.8614H31.678C27.7328 56.8614 24.5349 54.2097 24.5349 50.9375V49.8581Z" fill="black" stroke="black" stroke-width="4" stroke-linejoin="round"/>
<path d="M54.2977 27.775L44.3768 26.1591" stroke="black" stroke-width="4" stroke-linecap="round" stroke-linejoin="round"/>
</svg>
